<svg width="58" height="58" viewBox="0 0 58 58" fill="none" xmlns="http://www.w3.org/2000/svg">
<path d="M43.166 10.5211C42.7192 10.9679 42.625 11.5983 42.9548 11.9281C43.87 12.8433 45.6094 14.5827 46.524 15.4973C46.8539 15.8272 47.4838 15.7323 47.9314 15.2846C48.3783 14.8378 48.6045 13.4183 48.2747 13.0885C47.3606 12.1745 46.4116 11.2254 45.4954 10.3092C45.1661 9.97993 43.6129 10.0743 43.166 10.5211Z"/>
<path d="M15.1164 48.0997C15.5632 47.6528 15.6575 47.0225 15.3276 46.6926C14.4124 45.7775 12.673 44.0381 11.7584 43.1235C11.4285 42.7936 10.7987 42.8885 10.351 43.3361C9.90417 43.783 9.67793 45.2024 10.0077 45.5322C10.9218 46.4463 11.8708 47.3953 12.787 48.3115C13.1163 48.6408 14.6696 48.5465 15.1164 48.0997Z"/>
<path d="M9.92341 26.7933C8.8684 27.8483 8.58824 30.3758 9.95495 31.7425C14.0981 35.8856 22.3907 44.1769 26.533 48.3179C27.8997 49.6846 30.3208 49.3008 31.3759 48.2458C32.431 47.1907 32.3951 44.4978 31.0292 43.1318C29.4044 41.507 27.4832 39.5859 25.0821 37.1848C26.1836 36.0833 34.0614 28.2055 37.0002 25.2668C39.402 27.6686 41.6666 29.9332 43.2921 31.5587C44.6581 32.9247 47.006 32.6157 48.0611 31.5605C49.1161 30.5055 49.4398 28.143 48.0738 26.777C43.9307 22.6339 35.6387 14.3419 31.4971 10.2003C30.1297 8.83294 27.6636 9.0531 26.6087 10.108C25.5536 11.1631 25.3473 13.6139 26.7154 14.982C28.3402 16.6068 30.6056 18.8722 33.0073 21.2739C30.0674 24.2137 22.1908 32.0904 21.0892 33.1919C18.6875 30.7902 16.4228 28.5255 14.7974 26.9001C13.4301 25.5327 10.9792 25.7375 9.92341 26.7933Z"/>
<path d="M34.8588 8.5007C34.7964 8.56312 34.7347 8.62481 34.6717 8.68776C33.8769 9.48264 33.9686 10.8648 34.8804 11.7766C37.75 14.6462 43.6279 20.5242 46.4975 23.3937C47.4086 24.3049 48.7929 24.3988 49.5883 23.6034C49.6508 23.541 49.7138 23.478 49.7755 23.4163C50.5709 22.6209 50.4791 21.2388 49.5672 20.3269C46.6984 17.458 40.8197 11.5794 37.9495 8.71024C37.0384 7.79784 35.6542 7.70528 34.8588 8.5007Z"/>
<path d="M8.54099 34.8185C8.47864 34.8808 8.41562 34.9439 8.35327 35.0062C7.55785 35.8016 7.65016 37.1832 8.56197 38.095C11.4316 40.9646 17.3095 46.8426 20.1791 49.7121C21.091 50.624 22.474 50.7178 23.2694 49.9224C23.3318 49.86 23.3948 49.797 23.4565 49.7353C24.2519 48.9399 24.1596 47.5583 23.2477 46.6464C20.3788 43.7776 14.5002 37.8989 11.6305 35.0292C10.7194 34.1168 9.33641 34.0231 8.54099 34.8185Z"/>
</svg>
