<svg width="240" height="80" viewBox="0 0 240 80" fill="none" xmlns="http://www.w3.org/2000/svg">
<rect width="240" height="80" rx="25" fill="#7755FF"/>
<path d="M141.366 59V54.9961L145.199 54.2637V28.2139L141.366 27.4814V23.4531H168.686V32.8281H163.559L163.192 28.5557H151.84V38.0527H164.096V43.2041H151.84V53.9219H163.827L164.193 49.5518H169.271V59H141.366ZM182.187 59.5127C179.534 59.5127 177.442 58.821 175.912 57.4375C174.398 56.0378 173.642 54.1253 173.642 51.7002C173.642 50.04 174.089 48.5833 174.984 47.3301C175.896 46.0605 177.23 45.0758 178.988 44.376C180.762 43.6598 182.919 43.3018 185.458 43.3018H189.218V41.2266C189.218 39.8919 188.819 38.8177 188.021 38.0039C187.24 37.1901 186.085 36.7832 184.555 36.7832C183.725 36.7832 182.976 36.889 182.309 37.1006C181.658 37.2959 181.072 37.5807 180.551 37.9551L179.989 41.4951H175.155L175.106 34.8057C176.441 33.9919 177.906 33.3408 179.501 32.8525C181.112 32.348 182.903 32.0957 184.872 32.0957C188.274 32.0957 190.951 32.8932 192.904 34.4883C194.874 36.0671 195.858 38.3376 195.858 41.2998V52.5547C195.858 52.9128 195.858 53.2627 195.858 53.6045C195.875 53.9463 195.907 54.2799 195.956 54.6055L198.666 54.9961V59H190.243C190.064 58.4954 189.893 57.9827 189.73 57.4619C189.584 56.9248 189.478 56.3877 189.413 55.8506C188.55 56.9411 187.517 57.8281 186.312 58.5117C185.124 59.179 183.749 59.5127 182.187 59.5127ZM183.822 54.5078C184.945 54.5078 185.995 54.2474 186.972 53.7266C187.965 53.2057 188.713 52.5465 189.218 51.749V47.4521H185.434C183.725 47.4521 182.431 47.8509 181.552 48.6484C180.689 49.4297 180.258 50.3574 180.258 51.4316C180.258 52.4082 180.567 53.165 181.186 53.7021C181.804 54.2393 182.683 54.5078 183.822 54.5078ZM210.946 59.4883C208.603 59.4883 206.78 58.8372 205.478 57.5352C204.192 56.2168 203.549 54.1335 203.549 51.2852V37.2959H199.813V32.584H203.549V26.1387H210.165V32.584H215.219V37.2959H210.165V51.2852C210.165 52.3594 210.393 53.1325 210.849 53.6045C211.304 54.0765 211.915 54.3125 212.68 54.3125C213.103 54.3125 213.567 54.2799 214.071 54.2148C214.576 54.1497 214.999 54.0846 215.341 54.0195L215.976 58.7314C215.243 58.943 214.429 59.1221 213.534 59.2686C212.655 59.415 211.793 59.4883 210.946 59.4883Z" fill="white"/>
<path d="M25.0439 59V56.876L29.0234 56.5586V25.9189L25.0439 25.6016V23.4531H51.3623V31.2412H48.8721L48.6279 25.8945H31.9531V39.8594H46.4307V42.3252H31.9531V56.5586L35.9326 56.876V59H25.0439ZM55.6836 59V56.876L59.6631 56.5586V35.0498L55.6836 34.7324V32.584H62.5928V56.5586L66.5723 56.876V59H55.6836ZM59.3213 25.1377V20.9141H62.5928V25.1377H59.3213ZM80.6836 59.4639C78.8281 59.4639 77.3877 58.8942 76.3623 57.7549C75.3369 56.5993 74.8242 54.7438 74.8242 52.1885V34.9521H70.2588V32.584H74.8242V25.7969H77.7539V32.584H83.9062V34.9521H77.7539V52.1885C77.7539 53.9463 78.0632 55.2158 78.6816 55.9971C79.3164 56.762 80.1546 57.1445 81.1963 57.1445C81.7497 57.1445 82.2949 57.112 82.832 57.0469C83.3691 56.9655 83.9225 56.8841 84.4922 56.8027L84.9316 58.9023C84.3457 59.0814 83.6784 59.2197 82.9297 59.3174C82.181 59.415 81.4323 59.4639 80.6836 59.4639Z" fill="white"/>
<path d="M113.176 57.5042C113.298 57.6721 113.593 57.6632 113.884 58.4036C113.961 58.6 113.894 58.8481 113.943 59.0947C113.962 59.1935 113.926 59.3052 113.848 59.3657C113.705 59.4762 113.621 59.6502 113.444 59.7216C113.388 59.7443 113.361 59.8018 113.322 59.8446C113.176 60.0061 112.895 60.0494 112.713 59.9382C112.575 59.8537 112.591 59.7171 112.495 59.5114C112.431 59.3763 112.288 59.5072 112.271 59.5326C112.202 59.6358 112.097 59.6771 111.983 59.7108C111.766 59.775 111.543 59.6309 111.534 59.405C111.502 58.5665 111.883 58.748 110.641 58.5379C110.447 58.505 110.599 58.6402 109.996 58.4287C109.091 58.1115 109.001 57.9454 108.716 57.9138C108.523 57.8924 108.339 57.8309 108.155 57.7769C107.399 57.5546 102.015 56.5635 101.912 56.5532C101.648 56.5265 101.409 56.3981 101.147 56.3758C100.759 56.3428 100.402 56.1927 100.032 56.0927C99.8735 56.0499 99.7375 55.9626 99.6003 55.8691C98.8388 55.3501 96.8769 54.5091 97.0061 52.9542C97.0718 52.1629 97.1669 51.2645 98.7222 50.8402C102.003 49.9451 103.223 50.0267 105.768 49.7289C105.92 49.711 105.92 49.7077 105.894 49.5543C105.594 47.7502 105.201 48.8758 104.485 43.6566C104.392 42.9815 104.288 42.3082 104.008 41.6782C103.358 40.2166 104.281 38.7955 104.324 38.5549C104.371 38.2855 104.514 38.2999 104.641 37.9607C104.7 37.8038 104.784 37.657 104.837 37.497C104.88 37.3656 105.296 37.229 105.455 37.0547C105.725 36.759 106.04 36.5209 106.395 36.3381C106.542 36.2626 106.611 36.1148 106.72 36.0044C107.404 35.3083 107.24 35.5361 107.696 35.1401C107.891 34.9705 108.087 34.7917 108.308 34.6684C108.608 34.501 108.784 34.2098 109.054 34.0194C110.208 33.2056 112.058 26.0439 115.618 24.0645C115.93 23.8915 116.301 24.0957 116.567 24.3326C118.034 25.6412 119.519 27.2742 120.917 29.9186C121.351 30.7415 121.549 31.2863 121.72 31.4015C121.847 31.4871 122.04 31.9313 122.065 32.1691C122.097 32.4718 122.171 32.7642 122.276 33.0497C122.449 33.5198 122.403 33.8421 122.792 34.6215C122.857 34.7529 122.906 34.8884 122.936 35.0312L122.94 35.0282C122.894 35.0637 122.894 35.1207 122.876 35.1687C122.758 35.4775 122.65 35.2535 122.584 35.5022C122.426 36.0925 122.344 36.0313 122.274 36.3081C122.232 36.4724 122.176 36.6316 122.108 36.7863C122.036 36.9504 121.991 36.9737 121.809 36.9594C121.667 36.9483 121.605 36.8858 121.543 36.9624C121.25 37.3242 121.481 37.4218 121.308 37.6133C121.252 37.6753 121.233 37.6082 122.327 39.1315C122.447 39.2987 122.523 39.4885 122.602 39.6766C122.819 40.198 122.889 40.0833 123.103 40.8254C123.385 41.8047 123.853 42.7113 124.293 43.6233C127.614 50.517 126.41 47.4238 128.913 52.5139C129.585 53.879 129.718 54.7753 129.817 55.1838C129.958 55.7623 130.184 56.4217 129.732 57.085C129.604 57.2732 129.435 57.4295 129.23 57.5385C128.329 58.017 128.139 57.9857 127.75 58.0392C123.027 58.6878 116.759 57.5865 116.57 57.1572C116.487 56.9701 116.329 56.881 116.157 56.8035C115.48 56.4974 114.472 55.8918 113.435 55.6112C112.763 55.4293 112.748 55.5366 112.588 55.684C111.976 56.2474 112.859 57.0681 113.176 57.5042ZM117.958 43.2435C118.048 43.5315 117.869 43.79 117.863 44.0705C117.863 44.088 117.763 44.1562 117.791 44.2186C117.816 44.2738 117.775 44.2926 117.751 44.3311C117.548 44.6573 117.688 44.3641 117.703 45.2637C117.713 45.8424 118.328 46.7621 118.079 47.4294C118.002 47.6373 118.207 47.9138 118.105 48.4659C118.059 48.7119 118.257 48.8902 118.528 49.2113C118.877 49.6249 118.912 49.651 119.653 50.1378C119.922 50.3147 120.158 50.5471 120.481 50.6383C120.541 50.6554 120.631 50.6944 120.622 50.7703C120.604 50.9283 120.8 50.8979 120.819 50.976C120.846 51.093 120.931 51.1151 121.201 51.2525C121.372 51.3399 121.137 51.3867 121.289 51.4449C121.42 51.4948 121.521 51.6 121.659 51.6376C121.836 51.686 121.829 51.8306 121.742 51.775C121.595 51.6797 121.422 51.6364 121.269 51.5523C121.209 51.5195 121.157 51.4637 121.104 51.5672C121.062 51.6492 120.98 51.4188 120.829 51.5012C120.813 51.5102 120.782 51.5036 120.763 51.4949C120.597 51.4212 120.41 51.393 120.265 51.2728C120.218 51.2337 120.161 51.187 120.114 51.242C120.073 51.2908 120.147 51.3333 120.174 51.3712C120.235 51.4538 120.269 51.5606 120.374 51.6055C121.472 52.07 121.125 51.9725 121.581 52.1487C122.446 52.4827 122.054 52.3828 122.713 52.6527C122.907 52.7321 123.112 52.7748 123.306 52.8599C123.464 52.9297 123.64 52.9617 123.809 53.007C123.84 53.0153 123.882 53.0236 123.903 52.9882C123.92 52.9599 123.893 52.9342 123.878 52.9096C123.063 51.5284 123.244 50.9545 122.19 46.5963C122.093 46.198 121.706 43.9221 121.281 43.6448C120.56 43.1744 118.906 43.6106 119.412 41.7923C119.464 41.6062 119.573 41.4399 119.61 41.2528C119.66 40.9986 119.808 40.7852 119.876 40.5394C119.924 40.3668 119.942 40.1893 119.983 40.0157C119.991 39.9793 119.974 39.9355 119.964 39.8965C119.938 39.8002 119.934 39.7052 119.938 39.6042C119.949 39.336 119.888 39.0736 119.841 38.8109C119.833 38.7642 119.804 38.7441 119.752 38.7601C119.647 38.7924 119.016 39.0767 118.575 38.9344C118.366 38.8671 118.441 39.0255 118.245 38.9538C117.966 38.8515 117.683 38.8865 117.401 38.9409C117.336 38.9535 117.313 38.9914 117.346 39.0545C117.518 39.3764 117.544 39.3957 117.405 39.5281C117.345 39.586 117.261 39.5982 117.197 39.6515C117.026 39.7931 117.07 39.6073 117.711 40.813C117.878 41.1281 117.741 41.2491 117.817 41.3925C117.87 41.4918 118 41.9759 117.987 42.4259C117.979 42.6976 117.999 42.9698 117.958 43.2435ZM113.187 46.7162C113.23 46.7103 113.289 46.7348 113.31 46.6775C113.327 46.628 113.272 46.6132 113.244 46.5863C112.973 46.3176 113.116 46.2431 113.114 46.0724C113.099 44.6722 115.018 42.2385 115.962 39.9249C116.074 39.6519 115.785 39.7027 115.843 39.6406C115.949 39.5263 115.845 39.405 115.856 39.2874C115.863 39.2213 115.836 39.1481 115.751 39.1249C115.721 39.1168 115.706 39.0915 115.693 39.0639C115.533 38.713 115.51 39.2495 114.666 39.3807C114.211 39.4513 113.837 39.0738 113.907 38.621C113.934 38.4461 114.002 38.2864 114.072 38.1266C114.186 37.8699 113.87 38.1185 113.847 37.8348C113.836 37.6954 113.779 37.5657 113.77 37.4248C113.765 37.3546 113.712 37.2868 113.678 37.2197C113.662 37.1884 113.636 37.1575 113.596 37.1708C113.507 37.1998 113.554 37.4265 113.614 37.503C113.709 37.6229 113.706 37.693 113.614 37.8158C113.476 38.0011 113.624 37.8601 113.271 38.7438C113.066 39.2575 112.818 39.7528 112.585 40.2542C112.259 40.9558 112.39 40.8498 112.34 41.0484C112.306 41.1808 112.213 41.2908 112.184 41.4263C112.145 41.616 112.233 41.7936 112.24 41.9806C112.259 42.5411 112.121 43.855 112.112 43.9167C112.087 44.0846 112.017 44.2371 111.985 44.4048C111.941 44.6387 112.014 44.8763 112.048 45.1119C112.091 45.4124 111.981 45.7622 112.042 46.0473C112.086 46.2527 112.366 46.325 112.542 46.4102C112.804 46.537 112.64 46.652 112.91 46.704C112.975 46.7168 113.169 46.7185 113.187 46.7162ZM116.295 29.9923C116.36 30.0005 116.403 29.9519 116.443 29.9011C116.693 29.5899 116.827 29.6561 116.63 29.5177C116.396 29.3533 116.157 29.1966 115.96 28.9858C115.896 28.9179 115.862 28.9206 115.807 28.9949C115.471 29.4488 115.449 29.4613 115.514 29.5624C115.669 29.8057 115.578 29.8567 115.763 29.7892C116.108 29.6637 116.01 29.9881 116.295 29.9923ZM118.253 30.9245C118.293 30.8552 118.23 30.8192 118.194 30.7783C117.944 30.4937 117.666 30.2391 117.355 30.0221C117.311 29.9913 117.261 29.9192 117.209 29.9632C117.156 30.0075 117.2 30.0824 117.219 30.1419C117.226 30.1643 117.445 30.5216 117.518 30.6307C117.767 31.0003 118.195 31.0235 118.253 30.9245Z" fill="white"/>
<path d="M123.711 32.2582C123.711 32.2582 123.715 32.254 123.716 32.2537C123.716 32.2535 123.711 32.2582 123.711 32.2582Z" fill="white"/>
</svg>
