<svg width="300" height="100" viewBox="0 0 300 100" fill="none" xmlns="http://www.w3.org/2000/svg">
<rect width="300" height="100" rx="25" fill="#7755FF"/>
<path d="M175.469 75V69.875L180.375 68.9375V35.5938L175.469 34.6562V29.5H210.438V41.5H203.875L203.406 36.0312H188.875V48.1875H204.562V54.7812H188.875V68.5H204.219L204.688 62.9062H211.188V75H175.469ZM227.719 75.6562C224.323 75.6562 221.646 74.7708 219.688 73C217.75 71.2083 216.781 68.7604 216.781 65.6562C216.781 63.5312 217.354 61.6667 218.5 60.0625C219.667 58.4375 221.375 57.1771 223.625 56.2812C225.896 55.3646 228.656 54.9062 231.906 54.9062H236.719V52.25C236.719 50.5417 236.208 49.1667 235.188 48.125C234.188 47.0833 232.708 46.5625 230.75 46.5625C229.688 46.5625 228.729 46.6979 227.875 46.9688C227.042 47.2188 226.292 47.5833 225.625 48.0625L224.906 52.5938H218.719L218.656 44.0312C220.365 42.9896 222.24 42.1562 224.281 41.5312C226.344 40.8854 228.635 40.5625 231.156 40.5625C235.51 40.5625 238.938 41.5833 241.438 43.625C243.958 45.6458 245.219 48.5521 245.219 52.3438V66.75C245.219 67.2083 245.219 67.6562 245.219 68.0938C245.24 68.5312 245.281 68.9583 245.344 69.375L248.812 69.875V75H238.031C237.802 74.3542 237.583 73.6979 237.375 73.0312C237.188 72.3438 237.052 71.6562 236.969 70.9688C235.865 72.3646 234.542 73.5 233 74.375C231.479 75.2292 229.719 75.6562 227.719 75.6562ZM229.812 69.25C231.25 69.25 232.594 68.9167 233.844 68.25C235.115 67.5833 236.073 66.7396 236.719 65.7188V60.2188H231.875C229.688 60.2188 228.031 60.7292 226.906 61.75C225.802 62.75 225.25 63.9375 225.25 65.3125C225.25 66.5625 225.646 67.5312 226.438 68.2188C227.229 68.9062 228.354 69.25 229.812 69.25ZM264.531 75.625C261.531 75.625 259.198 74.7917 257.531 73.125C255.885 71.4375 255.062 68.7708 255.062 65.125V47.2188H250.281V41.1875H255.062V32.9375H263.531V41.1875H270V47.2188H263.531V65.125C263.531 66.5 263.823 67.4896 264.406 68.0938C264.99 68.6979 265.771 69 266.75 69C267.292 69 267.885 68.9583 268.531 68.875C269.177 68.7917 269.719 68.7083 270.156 68.625L270.969 74.6562C270.031 74.9271 268.99 75.1562 267.844 75.3438C266.719 75.5312 265.615 75.625 264.531 75.625Z" fill="white"/>
<path d="M26.9062 75V72.2812L32 71.875V32.6562L26.9062 32.25V29.5H60.5938V39.4688H57.4062L57.0938 32.625H35.75V50.5H54.2812V53.6562H35.75V71.875L40.8438 72.2812V75H26.9062ZM66.125 75V72.2812L71.2188 71.875V44.3438L66.125 43.9375V41.1875H74.9688V71.875L80.0625 72.2812V75H66.125ZM70.7812 31.6562V26.25H74.9688V31.6562H70.7812ZM98.125 75.5938C95.75 75.5938 93.9062 74.8646 92.5938 73.4062C91.2812 71.9271 90.625 69.5521 90.625 66.2812V44.2188H84.7812V41.1875H90.625V32.5H94.375V41.1875H102.25V44.2188H94.375V66.2812C94.375 68.5312 94.7708 70.1562 95.5625 71.1562C96.375 72.1354 97.4479 72.625 98.7812 72.625C99.4896 72.625 100.188 72.5833 100.875 72.5C101.562 72.3958 102.271 72.2917 103 72.1875L103.562 74.875C102.812 75.1042 101.958 75.2812 101 75.4062C100.042 75.5312 99.0833 75.5938 98.125 75.5938Z" fill="white"/>
<path d="M137.97 71.8803C138.122 72.0901 138.491 72.079 138.855 73.0046C138.951 73.2499 138.868 73.5601 138.929 73.8684C138.953 73.9919 138.907 74.1315 138.809 74.2071C138.631 74.3452 138.526 74.5627 138.305 74.652C138.235 74.6804 138.201 74.7522 138.153 74.8058C137.97 75.0076 137.619 75.0617 137.391 74.9227C137.218 74.8172 137.239 74.6464 137.118 74.3893C137.039 74.2203 136.86 74.384 136.839 74.4158C136.753 74.5448 136.621 74.5963 136.479 74.6385C136.208 74.7188 135.929 74.5386 135.918 74.2562C135.877 73.2082 136.354 73.435 134.801 73.1723C134.558 73.1313 134.748 73.3002 133.995 73.0359C132.864 72.6393 132.751 72.4318 132.395 72.3922C132.154 72.3654 131.924 72.2886 131.694 72.2211C130.748 71.9432 124.018 70.7044 123.89 70.6914C123.56 70.6581 123.261 70.4976 122.934 70.4698C122.448 70.4285 122.002 70.2408 121.54 70.1158C121.342 70.0624 121.172 69.9533 121 69.8364C120.049 69.1876 117.596 68.1364 117.758 66.1928C117.84 65.2036 117.959 64.0806 119.903 63.5502C124.003 62.4314 125.529 62.5333 128.709 62.1611C128.9 62.1388 128.9 62.1347 128.868 61.9429C128.492 59.6878 128.002 61.0948 127.106 54.5708C126.99 53.7269 126.86 52.8852 126.51 52.0978C125.697 50.2707 126.852 48.4944 126.905 48.1936C126.964 47.8569 127.143 47.8749 127.301 47.4508C127.375 47.2548 127.48 47.0712 127.546 46.8713C127.6 46.707 128.12 46.5363 128.319 46.3184C128.657 45.9487 129.049 45.6512 129.494 45.4226C129.678 45.3282 129.764 45.1436 129.9 45.0055C130.755 44.1354 130.55 44.4201 131.12 43.9251C131.364 43.7131 131.609 43.4897 131.885 43.3355C132.26 43.1262 132.48 42.7622 132.817 42.5242C134.26 41.507 136.572 32.5549 141.023 30.0806C141.412 29.8644 141.877 30.1196 142.209 30.4157C144.042 32.0515 145.899 34.0927 147.646 37.3983C148.189 38.4269 148.436 39.1079 148.65 39.2518C148.809 39.3589 149.05 39.9141 149.081 40.2114C149.121 40.5898 149.213 40.9553 149.345 41.3121C149.561 41.8997 149.503 42.3027 149.99 43.2769C150.072 43.4411 150.133 43.6105 150.171 43.789L150.175 43.7853C150.117 43.8296 150.117 43.9009 150.094 43.9609C149.947 44.3469 149.812 44.0669 149.729 44.3778C149.533 45.1156 149.429 45.0392 149.342 45.3851C149.29 45.5905 149.22 45.7895 149.135 45.9829C149.044 46.188 148.989 46.2171 148.761 46.1992C148.584 46.1854 148.507 46.1073 148.429 46.203C148.062 46.6553 148.352 46.7773 148.135 47.0166C148.065 47.0942 148.041 47.0103 149.408 48.9144C149.558 49.1234 149.654 49.3606 149.752 49.5957C150.024 50.2475 150.111 50.1041 150.379 51.0317C150.732 52.2559 151.317 53.3891 151.866 54.5291C156.017 63.1462 154.513 59.2798 157.642 65.6423C158.481 67.3487 158.648 68.4691 158.772 68.9798C158.947 69.7029 159.23 70.5271 158.665 71.3562C158.505 71.5915 158.294 71.7869 158.037 71.9231C156.911 72.5213 156.674 72.4822 156.187 72.549C150.284 73.3598 142.448 71.9831 142.212 71.4465C142.109 71.2126 141.911 71.1013 141.696 71.0044C140.85 70.6217 139.59 69.8648 138.294 69.514C137.454 69.2866 137.436 69.4208 137.235 69.605C136.47 70.3093 137.574 71.3351 137.97 71.8803ZM143.947 54.0544C144.06 54.4144 143.836 54.7374 143.829 55.0881C143.829 55.11 143.704 55.1952 143.739 55.2732C143.77 55.3423 143.719 55.3657 143.689 55.4138C143.435 55.8216 143.61 55.4551 143.629 56.5797C143.642 57.303 144.41 58.4526 144.099 59.2868C144.003 59.5467 144.258 59.8922 144.131 60.5824C144.074 60.8899 144.322 61.1127 144.66 61.5141C145.096 62.0311 145.14 62.0637 146.066 62.6722C146.403 62.8934 146.697 63.1839 147.101 63.2979C147.177 63.3193 147.289 63.368 147.278 63.4629C147.255 63.6603 147.5 63.6224 147.523 63.72C147.558 63.8662 147.663 63.8939 148.001 64.0657C148.215 64.1748 147.922 64.2333 148.112 64.3061C148.275 64.3685 148.401 64.4999 148.574 64.5471C148.795 64.6074 148.786 64.7883 148.678 64.7187C148.493 64.5996 148.278 64.5455 148.086 64.4404C148.012 64.3993 147.946 64.3296 147.88 64.459C147.827 64.5615 147.725 64.2735 147.536 64.3765C147.516 64.3877 147.478 64.3795 147.453 64.3686C147.246 64.2765 147.012 64.2412 146.832 64.091C146.773 64.0421 146.701 63.9837 146.643 64.0525C146.591 64.1135 146.683 64.1666 146.718 64.2139C146.793 64.3173 146.836 64.4508 146.968 64.5068C148.34 65.0875 147.906 64.9656 148.477 65.1859C149.558 65.6034 149.067 65.4785 149.891 65.8159C150.133 65.9151 150.391 65.9685 150.632 66.0749C150.83 66.1621 151.05 66.2022 151.261 66.2587C151.299 66.2691 151.353 66.2795 151.379 66.2352C151.4 66.1998 151.366 66.1677 151.348 66.137C150.329 64.4105 150.555 63.6932 149.237 58.2453C149.117 57.7475 148.632 54.9026 148.101 54.556C147.2 53.968 145.132 54.5132 145.765 52.2403C145.83 52.0077 145.966 51.7999 146.013 51.566C146.075 51.2483 146.261 50.9815 146.345 50.6742C146.404 50.4585 146.428 50.2366 146.478 50.0197C146.489 49.9741 146.468 49.9194 146.455 49.8706C146.422 49.7503 146.418 49.6315 146.423 49.5053C146.436 49.17 146.36 48.8421 146.302 48.5136C146.291 48.4553 146.255 48.4301 146.19 48.4502C146.058 48.4905 145.27 48.8459 144.718 48.668C144.458 48.5838 144.551 48.7819 144.307 48.6922C143.958 48.5644 143.604 48.6081 143.251 48.6761C143.17 48.6919 143.141 48.7393 143.183 48.8181C143.398 49.2205 143.43 49.2446 143.257 49.4101C143.181 49.4825 143.076 49.4977 142.996 49.5643C142.783 49.7414 142.838 49.5091 143.638 51.0163C143.847 51.4101 143.676 51.5614 143.771 51.7406C143.837 51.8648 144.001 52.4698 143.984 53.0324C143.974 53.372 143.998 53.7122 143.947 54.0544ZM137.983 58.3952C138.038 58.3879 138.112 58.4184 138.137 58.3469C138.159 58.2849 138.09 58.2665 138.056 58.2328C137.716 57.897 137.896 57.8038 137.893 57.5905C137.874 55.8403 140.273 52.7981 141.453 49.9061C141.592 49.5649 141.231 49.6283 141.303 49.5507C141.436 49.4079 141.306 49.2563 141.32 49.1092C141.329 49.0266 141.295 48.9351 141.189 48.9061C141.152 48.8959 141.132 48.8644 141.116 48.8298C140.916 48.3912 140.887 49.0618 139.832 49.2258C139.264 49.3141 138.796 48.8423 138.884 48.2762C138.918 48.0576 139.002 47.858 139.09 47.6583C139.232 47.3373 138.837 47.6482 138.809 47.2935C138.794 47.1192 138.724 46.9571 138.712 46.781C138.706 46.6932 138.64 46.6085 138.597 46.5246C138.577 46.4855 138.545 46.4469 138.494 46.4635C138.383 46.4997 138.442 46.7831 138.518 46.8787C138.636 47.0286 138.633 47.1163 138.518 47.2697C138.345 47.5014 138.53 47.3251 138.088 48.4297C137.832 49.0719 137.523 49.691 137.231 50.3177C136.823 51.1948 136.988 51.0622 136.925 51.3105C136.883 51.476 136.766 51.6135 136.73 51.7829C136.681 52.02 136.792 52.242 136.8 52.4757C136.823 53.1763 136.651 54.8187 136.64 54.8958C136.609 55.1058 136.521 55.2964 136.481 55.506C136.426 55.7983 136.517 56.0954 136.56 56.3899C136.614 56.7655 136.477 57.2028 136.553 57.5591C136.608 57.8159 136.958 57.9063 137.178 58.0127C137.505 58.1713 137.301 58.315 137.637 58.38C137.719 58.3959 137.962 58.3981 137.983 58.3952ZM141.868 37.4904C141.949 37.5006 142.003 37.4398 142.054 37.3764C142.366 36.9874 142.534 37.0702 142.287 36.8971C141.995 36.6917 141.696 36.4957 141.45 36.2322C141.37 36.1474 141.328 36.1507 141.259 36.2437C140.838 36.811 140.812 36.8267 140.892 36.953C141.086 37.2571 140.972 37.3208 141.204 37.2365C141.635 37.0796 141.512 37.4852 141.868 37.4904ZM144.316 38.6556C144.367 38.569 144.287 38.524 144.242 38.4728C143.93 38.1172 143.583 37.7989 143.194 37.5276C143.139 37.4891 143.076 37.3991 143.011 37.454C142.945 37.5094 143 37.603 143.024 37.6774C143.033 37.7053 143.306 38.152 143.398 38.2883C143.709 38.7503 144.244 38.7794 144.316 38.6556Z" fill="white"/>
<path d="M151.138 40.3228C151.138 40.3228 151.144 40.3175 151.145 40.3172C151.146 40.3169 151.138 40.3228 151.138 40.3228Z" fill="white"/>
</svg>
