<svg width="300" height="100" viewBox="0 0 300 100" fill="none" xmlns="http://www.w3.org/2000/svg">
<rect width="300" height="100" rx="25" fill="#7755FF"/>
<path d="M174.969 74V68.875L179.875 67.9375V34.5938L174.969 33.6562V28.5H209.938V40.5H203.375L202.906 35.0312H188.375V47.1875H204.062V53.7812H188.375V67.5H203.719L204.188 61.9062H210.688V74H174.969ZM227.219 74.6562C223.823 74.6562 221.146 73.7708 219.188 72C217.25 70.2083 216.281 67.7604 216.281 64.6562C216.281 62.5312 216.854 60.6667 218 59.0625C219.167 57.4375 220.875 56.1771 223.125 55.2812C225.396 54.3646 228.156 53.9062 231.406 53.9062H236.219V51.25C236.219 49.5417 235.708 48.1667 234.688 47.125C233.688 46.0833 232.208 45.5625 230.25 45.5625C229.188 45.5625 228.229 45.6979 227.375 45.9688C226.542 46.2188 225.792 46.5833 225.125 47.0625L224.406 51.5938H218.219L218.156 43.0312C219.865 41.9896 221.74 41.1562 223.781 40.5312C225.844 39.8854 228.135 39.5625 230.656 39.5625C235.01 39.5625 238.438 40.5833 240.938 42.625C243.458 44.6458 244.719 47.5521 244.719 51.3438V65.75C244.719 66.2083 244.719 66.6562 244.719 67.0938C244.74 67.5312 244.781 67.9583 244.844 68.375L248.312 68.875V74H237.531C237.302 73.3542 237.083 72.6979 236.875 72.0312C236.688 71.3438 236.552 70.6562 236.469 69.9688C235.365 71.3646 234.042 72.5 232.5 73.375C230.979 74.2292 229.219 74.6562 227.219 74.6562ZM229.312 68.25C230.75 68.25 232.094 67.9167 233.344 67.25C234.615 66.5833 235.573 65.7396 236.219 64.7188V59.2188H231.375C229.188 59.2188 227.531 59.7292 226.406 60.75C225.302 61.75 224.75 62.9375 224.75 64.3125C224.75 65.5625 225.146 66.5312 225.938 67.2188C226.729 67.9062 227.854 68.25 229.312 68.25ZM264.031 74.625C261.031 74.625 258.698 73.7917 257.031 72.125C255.385 70.4375 254.562 67.7708 254.562 64.125V46.2188H249.781V40.1875H254.562V31.9375H263.031V40.1875H269.5V46.2188H263.031V64.125C263.031 65.5 263.323 66.4896 263.906 67.0938C264.49 67.6979 265.271 68 266.25 68C266.792 68 267.385 67.9583 268.031 67.875C268.677 67.7917 269.219 67.7083 269.656 67.625L270.469 73.6562C269.531 73.9271 268.49 74.1562 267.344 74.3438C266.219 74.5312 265.115 74.625 264.031 74.625Z" fill="white"/>
<path d="M27.9062 74V71.2812L33 70.875V31.6562L27.9062 31.25V28.5H61.5938V38.4688H58.4062L58.0938 31.625H36.75V49.5H55.2812V52.6562H36.75V70.875L41.8438 71.2812V74H27.9062ZM67.125 74V71.2812L72.2188 70.875V43.3438L67.125 42.9375V40.1875H75.9688V70.875L81.0625 71.2812V74H67.125ZM71.7812 30.6562V25.25H75.9688V30.6562H71.7812ZM99.125 74.5938C96.75 74.5938 94.9062 73.8646 93.5938 72.4062C92.2812 70.9271 91.625 68.5521 91.625 65.2812V43.2188H85.7812V40.1875H91.625V31.5H95.375V40.1875H103.25V43.2188H95.375V65.2812C95.375 67.5312 95.7708 69.1562 96.5625 70.1562C97.375 71.1354 98.4479 71.625 99.7812 71.625C100.49 71.625 101.188 71.5833 101.875 71.5C102.562 71.3958 103.271 71.2917 104 71.1875L104.562 73.875C103.812 74.1042 102.958 74.2812 102 74.4062C101.042 74.5312 100.083 74.5938 99.125 74.5938Z" fill="white"/>
<path d="M136.223 74.5742C133.598 74.5742 131.31 74.1003 129.359 73.1523C127.427 72.1862 125.923 70.8555 124.848 69.1602C123.79 67.4648 123.262 65.5052 123.262 63.2812C123.262 61.0938 123.882 59.1797 125.121 57.5391C126.361 55.8984 128.211 54.2487 130.672 52.5898C130.727 52.5534 130.772 52.526 130.809 52.5078C130.863 52.4714 130.909 52.444 130.945 52.4258C129.523 50.6211 128.466 49.0169 127.773 47.6133C127.081 46.1914 126.734 44.7331 126.734 43.2383C126.734 41.1784 127.135 39.4375 127.938 38.0156C128.74 36.5755 129.888 35.4818 131.383 34.7344C132.878 33.987 134.664 33.6133 136.742 33.6133C138.674 33.6133 140.37 33.9961 141.828 34.7617C143.286 35.5273 144.426 36.5482 145.246 37.8242C146.066 39.1003 146.477 40.5221 146.477 42.0898C146.477 43.8763 145.993 45.4258 145.027 46.7383C144.079 48.0326 142.667 49.3633 140.789 50.7305L137.809 52.918L147.105 64.1016C147.853 62.9167 148.436 61.6042 148.855 60.1641C149.275 58.724 149.484 57.2018 149.484 55.5977H154.297C154.297 57.9857 153.941 60.2005 153.23 62.2422C152.52 64.2839 151.49 66.1159 150.141 67.7383L155.199 73.8633L155.145 74H148.883L146.559 71.2109C145.1 72.3047 143.487 73.1432 141.719 73.7266C139.951 74.2917 138.118 74.5742 136.223 74.5742ZM136.223 70.3633C137.535 70.3633 138.829 70.1445 140.105 69.707C141.382 69.2513 142.585 68.6042 143.715 67.7656L133.844 55.8711L132.75 56.6641C131.091 57.9036 129.988 59.0885 129.441 60.2188C128.913 61.349 128.648 62.3698 128.648 63.2812C128.648 65.3411 129.296 67.0365 130.59 68.3672C131.884 69.6979 133.762 70.3633 136.223 70.3633ZM135.074 49.6367L138.848 47.0391C139.887 46.3464 140.589 45.599 140.953 44.7969C141.336 43.9766 141.527 43.0742 141.527 42.0898C141.527 40.9779 141.081 39.9935 140.188 39.1367C139.312 38.2799 138.164 37.8516 136.742 37.8516C135.266 37.8516 134.126 38.3711 133.324 39.4102C132.522 40.431 132.121 41.6888 132.121 43.1836C132.121 44.1497 132.367 45.1615 132.859 46.2188C133.352 47.2578 134.09 48.3971 135.074 49.6367Z" fill="white"/>
</svg>
